 <svg xmlns="http://www.w3.org/2000/svg" width="32" height="32" viewBox="0 0 24 24"><path fill="#ffffff" fill-rule="evenodd" d="M2 12C2 6.477 6.477 2 12 2s10 4.477 10 10s-4.477 10-10 10a9.965 9.965 0 0 1-4.262-.951l-4.537.93a1 1 0 0 1-1.18-1.18l.93-4.537A9.965 9.965 0 0 1 2 12Zm5.5-1.5A1.5 1.5 0 0 0 6 12v.01a1.5 1.5 0 0 0 1.5 1.5h.01a1.5 1.5 0 0 0 1.5-1.5V12a1.5 1.5 0 0 0-1.5-1.5H7.5Zm4.5 0a1.5 1.5 0 0 0-1.5 1.5v.01a1.5 1.5 0 0 0 1.5 1.5h.01a1.5 1.5 0 0 0 1.5-1.5V12a1.5 1.5 0 0 0-1.5-1.5H12Zm3 1.5a1.5 1.5 0 0 1 1.5-1.5h.01a1.5 1.5 0 0 1 1.5 1.5v.01a1.5 1.5 0 0 1-1.5 1.5h-.01a1.5 1.5 0 0 1-1.5-1.5V12Z" clip-rule="evenodd"/></svg>
